# xmcd
#
# Track frame offsets:
#	150
#	13120
#	32055
#	58120
#	79210
#	102695
#	123675
#	164110
#	204245
#	241345
#	259260
#	277120
#	308495
#
# Disc length: 4362 seconds
#
# Revision: 0
# Processed by: cddbd v1.5.1PL0 Copyright (c) Steve Scherf et al.
# Submitted via: EasyCDDAExtractor 8.0.2.1
#
DISCID=bf11080d
DTITLE=Ozzy Osbourne - Castle Hall Osaka 02-07-84 
DYEAR=1984
DGENRE=Hard Rock
TTITLE0=Intro
TTITLE1=I Don't Know
TTITLE2=Mr Crowley
TTITLE3=Over The Mountain
TTITLE4=Rock and Roll Rebel
TTITLE5=Bark At The Moon
TTITLE6=Revelation (Mother Earth)
TTITLE7=Suicide Solution
TTITLE8=Journey To The Centre Of Eternity Incl Drum Solo
TTITLE9=Flying High Again
TTITLE10=Iron Man
TTITLE11=Crazy Train
TTITLE12=Paranoid
EXTD=
EXTT0=
EXTT1=
EXTT2=
EXTT3=
EXTT4=
EXTT5=
EXTT6=
EXTT7=
EXTT8=
EXTT9=
EXTT10=
EXTT11=
EXTT12=
PLAYORDER=
